<mxfile host="65bd71144e">
    <diagram id="Xz5JX9BvZpV5T3fCW6BU" name="Page-1">
        <mxGraphModel dx="2337" dy="681" grid="1" gridSize="10" guides="1" tooltips="1" connect="1" arrows="1" fold="1" page="1" pageScale="1" pageWidth="827" pageHeight="1169" math="0" shadow="0">
            <root>
                <mxCell id="0"/>
                <mxCell id="1" parent="0"/>
                <mxCell id="2" value="Diagramme de Cas d'utilisation : Optitop Web" style="text;html=1;align=center;verticalAlign=middle;resizable=0;points=[];autosize=1;strokeColor=#3399FF;fillColor=none;" parent="1" vertex="1">
                    <mxGeometry x="-1654" width="270" height="30" as="geometry"/>
                </mxCell>
                <mxCell id="3" value="Collaborateur" style="shape=umlActor;verticalLabelPosition=bottom;verticalAlign=top;html=1;outlineConnect=0;strokeColor=#3399FF;" parent="1" vertex="1">
                    <mxGeometry x="-1630" y="70" width="30" height="60" as="geometry"/>
                </mxCell>
                <mxCell id="4" value="Manager" style="shape=umlActor;verticalLabelPosition=bottom;verticalAlign=top;html=1;outlineConnect=0;strokeColor=#3399FF;" parent="1" vertex="1">
                    <mxGeometry x="-1630" y="200" width="30" height="60" as="geometry"/>
                </mxCell>
                <mxCell id="5" value="Supermanager" style="shape=umlActor;verticalLabelPosition=bottom;verticalAlign=top;html=1;outlineConnect=0;strokeColor=#3399FF;" parent="1" vertex="1">
                    <mxGeometry x="-1630" y="330" width="30" height="60" as="geometry"/>
                </mxCell>
                <mxCell id="6" value="Admin" style="shape=umlActor;verticalLabelPosition=bottom;verticalAlign=top;html=1;outlineConnect=0;strokeColor=#3399FF;" parent="1" vertex="1">
                    <mxGeometry x="-1630" y="460" width="30" height="60" as="geometry"/>
                </mxCell>
                <mxCell id="9" value="" style="rounded=1;whiteSpace=wrap;html=1;strokeColor=default;labelBackgroundColor=default;endArrow=open;fontSize=11;dashed=1;endFill=0;" parent="1" vertex="1">
                    <mxGeometry x="-1550" y="40" width="420" height="530" as="geometry"/>
                </mxCell>
                <mxCell id="23" value="Consulter les statistiques complètes du magasin" style="ellipse;whiteSpace=wrap;html=1;strokeColor=#3399FF;" parent="1" vertex="1">
                    <mxGeometry x="-1494" y="270" width="124" height="50" as="geometry"/>
                </mxCell>
                <mxCell id="32" value="Mise à jour des statistiques" style="ellipse;whiteSpace=wrap;html=1;strokeColor=#3399FF;" parent="1" vertex="1">
                    <mxGeometry x="-1494" y="410" width="124" height="50" as="geometry"/>
                </mxCell>
                <mxCell id="33" value="Validation &amp;amp; &lt;br&gt;Gestion des comptes utilisateurs&amp;nbsp;" style="ellipse;whiteSpace=wrap;html=1;strokeColor=#3399FF;" parent="1" vertex="1">
                    <mxGeometry x="-1494" y="480" width="124" height="50" as="geometry"/>
                </mxCell>
                <mxCell id="34" value="Demander la création d'un compte utilisateur" style="ellipse;whiteSpace=wrap;html=1;strokeColor=#3399FF;" parent="1" vertex="1">
                    <mxGeometry x="-1494" y="340" width="124" height="50" as="geometry"/>
                </mxCell>
                <mxCell id="35" value="Consulter les statistiques basiques du magasin" style="ellipse;whiteSpace=wrap;html=1;strokeColor=#3399FF;" parent="1" vertex="1">
                    <mxGeometry x="-1494" y="200" width="124" height="50" as="geometry"/>
                </mxCell>
                <mxCell id="36" value="Consulter ses statistiques personnelles" style="ellipse;whiteSpace=wrap;html=1;strokeColor=#3399FF;" parent="1" vertex="1">
                    <mxGeometry x="-1494" y="60" width="124" height="50" as="geometry"/>
                </mxCell>
                <mxCell id="37" value="Commenter &lt;br&gt;ses devis non concrétisés" style="ellipse;whiteSpace=wrap;html=1;strokeColor=#3399FF;" parent="1" vertex="1">
                    <mxGeometry x="-1494" y="130" width="124" height="50" as="geometry"/>
                </mxCell>
                <mxCell id="38" value="" style="endArrow=none;html=1;entryX=0;entryY=0.5;entryDx=0;entryDy=0;exitX=0.5;exitY=0.5;exitDx=0;exitDy=0;exitPerimeter=0;" parent="1" source="3" target="37" edge="1">
                    <mxGeometry width="50" height="50" relative="1" as="geometry">
                        <mxPoint x="-1610" y="100" as="sourcePoint"/>
                        <mxPoint x="-1560" y="50" as="targetPoint"/>
                    </mxGeometry>
                </mxCell>
                <mxCell id="39" value="" style="endArrow=none;html=1;entryX=0;entryY=0.5;entryDx=0;entryDy=0;exitX=0.5;exitY=0.5;exitDx=0;exitDy=0;exitPerimeter=0;" parent="1" source="3" target="36" edge="1">
                    <mxGeometry width="50" height="50" relative="1" as="geometry">
                        <mxPoint x="-1610" y="100" as="sourcePoint"/>
                        <mxPoint x="-1484" y="165" as="targetPoint"/>
                    </mxGeometry>
                </mxCell>
                <mxCell id="41" value="" style="endArrow=block;html=1;exitX=0.5;exitY=0;exitDx=0;exitDy=0;exitPerimeter=0;endFill=0;" parent="1" source="4" edge="1">
                    <mxGeometry width="50" height="50" relative="1" as="geometry">
                        <mxPoint x="-1450" y="320" as="sourcePoint"/>
                        <mxPoint x="-1615" y="150" as="targetPoint"/>
                    </mxGeometry>
                </mxCell>
                <mxCell id="42" value="" style="endArrow=block;html=1;exitX=0.5;exitY=0;exitDx=0;exitDy=0;exitPerimeter=0;endFill=0;" parent="1" edge="1">
                    <mxGeometry width="50" height="50" relative="1" as="geometry">
                        <mxPoint x="-1615.5" y="330" as="sourcePoint"/>
                        <mxPoint x="-1615.5" y="280" as="targetPoint"/>
                    </mxGeometry>
                </mxCell>
                <mxCell id="43" value="" style="endArrow=none;html=1;entryX=0;entryY=0.5;entryDx=0;entryDy=0;exitX=0.5;exitY=0.5;exitDx=0;exitDy=0;exitPerimeter=0;" parent="1" source="3" target="35" edge="1">
                    <mxGeometry width="50" height="50" relative="1" as="geometry">
                        <mxPoint x="-1600" y="230" as="sourcePoint"/>
                        <mxPoint x="-1494" y="220" as="targetPoint"/>
                    </mxGeometry>
                </mxCell>
                <mxCell id="45" value="" style="endArrow=none;html=1;entryX=0;entryY=0.5;entryDx=0;entryDy=0;exitX=0.5;exitY=0.5;exitDx=0;exitDy=0;exitPerimeter=0;" parent="1" source="4" edge="1">
                    <mxGeometry width="50" height="50" relative="1" as="geometry">
                        <mxPoint x="-1615" y="170" as="sourcePoint"/>
                        <mxPoint x="-1494" y="295" as="targetPoint"/>
                    </mxGeometry>
                </mxCell>
                <mxCell id="46" value="" style="endArrow=none;html=1;entryX=0;entryY=0.5;entryDx=0;entryDy=0;exitX=0.5;exitY=0.5;exitDx=0;exitDy=0;exitPerimeter=0;" parent="1" source="4" edge="1">
                    <mxGeometry width="50" height="50" relative="1" as="geometry">
                        <mxPoint x="-1615" y="242.5" as="sourcePoint"/>
                        <mxPoint x="-1494" y="367.5" as="targetPoint"/>
                    </mxGeometry>
                </mxCell>
                <mxCell id="47" value="" style="endArrow=none;html=1;entryX=0;entryY=0.5;entryDx=0;entryDy=0;exitX=0.5;exitY=0.5;exitDx=0;exitDy=0;exitPerimeter=0;" parent="1" source="5" edge="1">
                    <mxGeometry width="50" height="50" relative="1" as="geometry">
                        <mxPoint x="-1615" y="310" as="sourcePoint"/>
                        <mxPoint x="-1494" y="435" as="targetPoint"/>
                    </mxGeometry>
                </mxCell>
                <mxCell id="48" value="" style="endArrow=none;html=1;entryX=0;entryY=0.5;entryDx=0;entryDy=0;exitX=0.5;exitY=0.5;exitDx=0;exitDy=0;exitPerimeter=0;" parent="1" source="6" edge="1">
                    <mxGeometry width="50" height="50" relative="1" as="geometry">
                        <mxPoint x="-1615" y="430" as="sourcePoint"/>
                        <mxPoint x="-1494" y="505" as="targetPoint"/>
                    </mxGeometry>
                </mxCell>
                <mxCell id="49" value="Utilisateur connecté" style="ellipse;whiteSpace=wrap;html=1;strokeColor=#3399FF;" parent="1" vertex="1">
                    <mxGeometry x="-1270" y="255" width="120" height="80" as="geometry"/>
                </mxCell>
                <mxCell id="56" value="" style="endArrow=open;html=1;entryX=0.5;entryY=0;entryDx=0;entryDy=0;exitX=1;exitY=0.5;exitDx=0;exitDy=0;dashed=1;endFill=0;" parent="1" source="36" target="49" edge="1">
                    <mxGeometry relative="1" as="geometry">
                        <mxPoint x="-1370" y="280" as="sourcePoint"/>
                        <mxPoint x="-1270" y="280" as="targetPoint"/>
                    </mxGeometry>
                </mxCell>
                <mxCell id="57" value="Include" style="edgeLabel;resizable=0;html=1;align=center;verticalAlign=middle;strokeColor=#3399FF;" parent="56" connectable="0" vertex="1">
                    <mxGeometry relative="1" as="geometry"/>
                </mxCell>
                <mxCell id="58" value="" style="endArrow=open;html=1;entryX=0;entryY=0;entryDx=0;entryDy=0;exitX=1;exitY=0.5;exitDx=0;exitDy=0;dashed=1;endFill=0;" parent="1" source="37" target="49" edge="1">
                    <mxGeometry relative="1" as="geometry">
                        <mxPoint x="-1360" y="95" as="sourcePoint"/>
                        <mxPoint x="-1260" y="305" as="targetPoint"/>
                    </mxGeometry>
                </mxCell>
                <mxCell id="59" value="Include" style="edgeLabel;resizable=0;html=1;align=center;verticalAlign=middle;strokeColor=#3399FF;" parent="58" connectable="0" vertex="1">
                    <mxGeometry relative="1" as="geometry"/>
                </mxCell>
                <mxCell id="60" value="" style="endArrow=open;html=1;exitX=1;exitY=0.5;exitDx=0;exitDy=0;dashed=1;endFill=0;" parent="1" source="35" edge="1">
                    <mxGeometry relative="1" as="geometry">
                        <mxPoint x="-1350" y="105" as="sourcePoint"/>
                        <mxPoint x="-1270" y="280" as="targetPoint"/>
                    </mxGeometry>
                </mxCell>
                <mxCell id="61" value="Include" style="edgeLabel;resizable=0;html=1;align=center;verticalAlign=middle;strokeColor=#3399FF;" parent="60" connectable="0" vertex="1">
                    <mxGeometry relative="1" as="geometry"/>
                </mxCell>
                <mxCell id="62" value="" style="endArrow=open;html=1;exitX=1;exitY=0.5;exitDx=0;exitDy=0;dashed=1;endFill=0;entryX=0;entryY=0.5;entryDx=0;entryDy=0;" parent="1" source="23" target="49" edge="1">
                    <mxGeometry relative="1" as="geometry">
                        <mxPoint x="-1360" y="235" as="sourcePoint"/>
                        <mxPoint x="-1260" y="305" as="targetPoint"/>
                    </mxGeometry>
                </mxCell>
                <mxCell id="63" value="Include" style="edgeLabel;resizable=0;html=1;align=center;verticalAlign=middle;strokeColor=#3399FF;" parent="62" connectable="0" vertex="1">
                    <mxGeometry relative="1" as="geometry"/>
                </mxCell>
                <mxCell id="64" value="" style="endArrow=open;html=1;exitX=1;exitY=0;exitDx=0;exitDy=0;dashed=1;endFill=0;entryX=0;entryY=1;entryDx=0;entryDy=0;" parent="1" source="34" target="49" edge="1">
                    <mxGeometry relative="1" as="geometry">
                        <mxPoint x="-1360" y="305" as="sourcePoint"/>
                        <mxPoint x="-1260" y="305" as="targetPoint"/>
                    </mxGeometry>
                </mxCell>
                <mxCell id="65" value="Include" style="edgeLabel;resizable=0;html=1;align=center;verticalAlign=middle;strokeColor=#3399FF;" parent="64" connectable="0" vertex="1">
                    <mxGeometry relative="1" as="geometry"/>
                </mxCell>
                <mxCell id="66" value="" style="endArrow=open;html=1;exitX=1;exitY=0.5;exitDx=0;exitDy=0;dashed=1;endFill=0;entryX=0.277;entryY=0.975;entryDx=0;entryDy=0;entryPerimeter=0;" parent="1" source="32" target="49" edge="1">
                    <mxGeometry relative="1" as="geometry">
                        <mxPoint x="-1350" y="315" as="sourcePoint"/>
                        <mxPoint x="-1270" y="290" as="targetPoint"/>
                    </mxGeometry>
                </mxCell>
                <mxCell id="67" value="Include" style="edgeLabel;resizable=0;html=1;align=center;verticalAlign=middle;strokeColor=#3399FF;" parent="66" connectable="0" vertex="1">
                    <mxGeometry relative="1" as="geometry"/>
                </mxCell>
                <mxCell id="68" value="" style="endArrow=open;html=1;exitX=1;exitY=0.5;exitDx=0;exitDy=0;dashed=1;endFill=0;entryX=0.5;entryY=1;entryDx=0;entryDy=0;" parent="1" source="33" target="49" edge="1">
                    <mxGeometry relative="1" as="geometry">
                        <mxPoint x="-1340" y="325" as="sourcePoint"/>
                        <mxPoint x="-1270" y="300" as="targetPoint"/>
                    </mxGeometry>
                </mxCell>
                <mxCell id="69" value="Include" style="edgeLabel;resizable=0;html=1;align=center;verticalAlign=middle;strokeColor=#3399FF;" parent="68" connectable="0" vertex="1">
                    <mxGeometry relative="1" as="geometry"/>
                </mxCell>
                <mxCell id="72" value="" style="endArrow=open;html=1;exitX=1;exitY=0;exitDx=0;exitDy=0;dashed=1;endFill=0;entryX=1;entryY=0.5;entryDx=0;entryDy=0;" edge="1" parent="1" source="33" target="34">
                    <mxGeometry relative="1" as="geometry">
                        <mxPoint x="-1360" y="515" as="sourcePoint"/>
                        <mxPoint x="-1370" y="370" as="targetPoint"/>
                        <Array as="points">
                            <mxPoint x="-1320" y="420"/>
                        </Array>
                    </mxGeometry>
                </mxCell>
                <mxCell id="73" value="Include" style="edgeLabel;resizable=0;html=1;align=center;verticalAlign=middle;strokeColor=#3399FF;" connectable="0" vertex="1" parent="72">
                    <mxGeometry relative="1" as="geometry"/>
                </mxCell>
            </root>
        </mxGraphModel>
    </diagram>
</mxfile>